<?xml version="1.0" encoding="utf-8"?>
<!-- Generator: Adobe Illustrator 22.0.1, SVG Export Plug-In . SVG Version: 6.00 Build 0)  -->
<svg version="1.1" id="Layer_1" xmlns="http://www.w3.org/2000/svg" xmlns:xlink="http://www.w3.org/1999/xlink" x="0px" y="0px"
	 viewBox="0 0 143 107.9" style="enable-background:new 0 0 143 107.9;" xml:space="preserve">
<style type="text/css">
	.st0{fill:#FFFFFF;}
</style>
<g>
	<path class="st0" d="M2.3,52.9c1.6-2.4,3.8-3.1,6.6-3c37.8,0.1,75.6,0,113.4,0c1.2,0,2.4,0,3.6,0c0.2-0.3,0.3-0.5,0.5-0.8
		c-4.2-4.1-8.4-8.1-12.6-12.2c-8.4-8.3-16.8-16.7-25.1-25.1c-1.2-1.2-2-3.2-2-4.8c0-1.1,1.7-3,2.9-3.1c1.6-0.2,3.8,0.5,4.9,1.6
		c9.2,9,18.3,18.1,27.4,27.2c5.9,5.9,11.8,11.7,17.6,17.6c2.9,2.9,2.9,5,0,8c-14.9,14.9-29.8,29.8-44.7,44.7
		c-0.4,0.4-0.9,0.9-1.4,1.3c-1.9,1.3-3.8,1.3-5.4-0.3c-1.8-1.6-2-3.6-0.7-5.6c0.8-1.2,2-2.1,3-3.2C101.5,84,112.8,72.7,124,61.6
		c0.8-0.8,2-1.1,3-1.6c-0.3-0.5-0.7-0.9-1-1.4c-1.1,0-2.2,0-3.3,0c-38,0-76,0-114,0c-2.8,0-5.1-0.5-6.4-3.3
		C2.3,54.5,2.3,53.7,2.3,52.9z"/>
</g>
</svg>
